<?xml version="1.0" encoding="UTF-8" standalone="no"?>
<!-- Generator: Adobe Illustrator 18.1.1, SVG Export Plug-In . SVG Version: 6.00 Build 0)  -->

<svg
   xmlns:dc="http://purl.org/dc/elements/1.1/"
   xmlns:cc="http://creativecommons.org/ns#"
   xmlns:rdf="http://www.w3.org/1999/02/22-rdf-syntax-ns#"
   xmlns:svg="http://www.w3.org/2000/svg"
   xmlns="http://www.w3.org/2000/svg"
   xmlns:sodipodi="http://sodipodi.sourceforge.net/DTD/sodipodi-0.dtd"
   xmlns:inkscape="http://www.inkscape.org/namespaces/inkscape"
   version="1.1"
   id="Layer_1"
   x="0px"
   y="0px"
   viewBox="0 0 392.5 71.400002"
   enable-background="new 0 0 432 432"
   xml:space="preserve"
   sodipodi:docname="logo1.svg"
   width="392.5"
   height="71.400002"
   inkscape:version="0.92.3 (2405546, 2018-03-11)"><metadata
   id="metadata39"><rdf:RDF><cc:Work
       rdf:about=""><dc:format>image/svg+xml</dc:format><dc:type
         rdf:resource="http://purl.org/dc/dcmitype/StillImage" /><dc:title></dc:title></cc:Work></rdf:RDF></metadata><defs
   id="defs37" /><sodipodi:namedview
   pagecolor="#ffffff"
   bordercolor="#666666"
   borderopacity="1"
   objecttolerance="10"
   gridtolerance="10"
   guidetolerance="10"
   inkscape:pageopacity="0"
   inkscape:pageshadow="2"
   inkscape:window-width="3840"
   inkscape:window-height="2040"
   id="namedview35"
   showgrid="false"
   inkscape:snap-page="true"
   fit-margin-top="0"
   fit-margin-left="0"
   fit-margin-right="0"
   fit-margin-bottom="0"
   inkscape:zoom="7.2824074"
   inkscape:cx="194.6"
   inkscape:cy="35.700001"
   inkscape:window-x="2880"
   inkscape:window-y="360"
   inkscape:window-maximized="1"
   inkscape:current-layer="Layer_1" />
<circle
   cx="35.700001"
   cy="35.700001"
   id="circle2"
   r="35.700001"
   style="fill:#2f9a41" />
<g
   id="g6"
   transform="translate(-21.399998,-181)">
	<path
   d="m 45.6,198.9 v -7.1 h 8.2 v 7.1 z m 0,42.8 v -7.1 h 8.2 v 7.1 z m 8.2,-35.6 V 199 H 62 v 7.1 z m 0,28.4 v -7.1 H 62 v 7.1 z M 62,213.2 v -7.1 h 8.2 v 7.1 z m 0,14.2 v -7.1 h 8.2 v 7.1 z m 8.2,-7.1 v -7.1 h 8.2 v 7.1 z"
   id="path4"
   inkscape:connector-curvature="0"
   style="fill:#ffffff" />
</g>
<g
   id="g32"
   transform="translate(-21.399998,-181)">
	<path
   d="m 136.3,199.9 v 2.8 c 0,0.3 -0.2,0.5 -0.5,0.5 h -8.3 v 25.2 c 0,0.3 -0.2,0.5 -0.5,0.5 h -3.1 v -25.7 h -8.7 v -2.8 c 0,-0.3 0.2,-0.5 0.5,-0.5 z"
   id="path8"
   inkscape:connector-curvature="0"
   style="fill:#2f9a41" />
	<path
   d="m 143,206.2 v 7.3 c 0.4,-0.5 1.1,-0.8 1.9,-0.8 h 12.7 v 2.8 c 0,0.3 -0.2,0.5 -0.5,0.5 H 143 v 6.6 c 0,1.6 1.3,2.9 2.9,2.9 h 12.5 c 0.3,0 0.5,0.2 0.5,0.5 v 2.8 h -13 c -3.6,0 -6.6,-2.9 -6.6,-6.6 v -15.9 c 0,-3.6 2.9,-6.6 6.6,-6.6 h 13 v 2.8 c 0,0.3 -0.2,0.5 -0.5,0.5 h -12.5 c -1.6,0.2 -2.9,1.5 -2.9,3.2 z"
   id="path10"
   inkscape:connector-curvature="0"
   style="fill:#2f9a41" />
	<path
   d="m 166.1,215 v 13.4 c 0,0.3 -0.2,0.5 -0.5,0.5 h -3.1 v -26.8 c 0,-1.2 1,-2.2 2.2,-2.2 h 12.1 c 3.6,0 6.6,2.3 6.6,6.2 v 3.8 c 0,3.4 -2.4,5.3 -5.3,6 l 6.2,13.1 H 181 c -0.3,0 -0.6,-0.2 -0.7,-0.5 l -5.9,-12.4 h -4.9 -1.1 c -1.1,0 -1.9,-0.3 -2.3,-1.1 z m 10.8,-2.3 c 1.6,0 2.9,-1.3 2.9,-2.9 v -3.6 c 0,-1.6 -1.3,-2.9 -2.9,-2.9 h -10 c -0.4,0 -0.7,0.3 -0.7,0.7 v 8 c 0,0.4 0.3,0.7 0.7,0.7 z"
   id="path12"
   inkscape:connector-curvature="0"
   style="fill:#2f9a41" />
	<path
   d="m 191.7,200.6 9.6,17.6 9.7,-17.6 c 0.2,-0.3 0.7,-0.6 1,-0.6 h 2.7 c 0.3,0 0.5,0.2 0.5,0.5 V 229 h -3.1 c -0.3,0 -0.5,-0.2 -0.5,-0.5 v -22.6 l -8.1,15.4 c -0.2,0.3 -0.5,0.5 -0.8,0.5 h -2.8 c -0.3,0 -0.6,-0.2 -0.8,-0.5 L 191,205.9 v 22.6 c 0,0.3 -0.2,0.5 -0.5,0.5 h -3.1 v -28.5 c 0,-0.3 0.2,-0.5 0.5,-0.5 h 2.7 c 0.5,-0.1 0.9,0.2 1.1,0.6 z"
   id="path14"
   inkscape:connector-curvature="0"
   style="fill:#2f9a41" />
	<path
   d="m 220.8,228.4 v -28.5 h 3.1 c 0.3,0 0.5,0.2 0.5,0.5 v 28.5 h -3.1 c -0.3,0 -0.5,-0.2 -0.5,-0.5 z"
   id="path16"
   inkscape:connector-curvature="0"
   style="fill:#2f9a41" />
	<path
   d="m 249.3,223.7 c -0.4,-3 -0.4,-5.5 -0.6,-8.2 v -15.1 c 0,-0.3 0.2,-0.5 0.5,-0.5 h 3.1 v 29 H 249 c -0.3,0 -0.6,-0.2 -0.7,-0.5 L 235,203.8 c -0.2,-0.3 -0.7,-0.6 -1,-0.6 -0.3,0 -0.7,0 -0.7,0 v 25.2 c 0,0.3 -0.2,0.5 -0.5,0.5 h -3.1 v -28.5 c 0,-0.3 0.2,-0.5 0.5,-0.5 h 4.4 c 1.2,0 2.7,0.9 3.3,2 l 7.9,14.9 z"
   id="path18"
   inkscape:connector-curvature="0"
   style="fill:#2f9a41" />
	<path
   d="m 282.9,228.9 h -3.2 c -0.3,0 -0.6,-0.2 -0.7,-0.5 l -2.6,-7.5 h -14.8 l -2.6,7.5 c -0.1,0.3 -0.4,0.5 -0.7,0.5 h -3.2 l 9.4,-26.9 c 0.5,-1.3 1.7,-2.2 3.1,-2.2 h 4.6 c 0.2,0 0.4,0.1 0.5,0.3 z m -7.6,-11.3 -5,-14.4 h -1.9 c -0.3,0 -0.6,0.2 -0.7,0.5 l -4.8,13.9 z"
   id="path20"
   inkscape:connector-curvature="0"
   style="fill:#2f9a41" />
	<path
   d="m 285.9,222.2 v -21.8 c 0,-0.3 0.2,-0.5 0.5,-0.5 h 3.1 v 22.7 c 0,1.7 1.4,3 3,3 h 12.1 c 0.3,0 0.5,0.2 0.5,0.5 v 2.8 h -12.6 c -3.6,0 -6.6,-3 -6.6,-6.7 z"
   id="path22"
   inkscape:connector-curvature="0"
   style="fill:#2f9a41" />
	<path
   d="m 316.7,222.2 v -21.8 c 0,-0.3 0.2,-0.5 0.5,-0.5 h 3.1 v 22.7 c 0,1.7 1.4,3 3,3 h 12.1 c 0.3,0 0.5,0.2 0.5,0.5 v 2.8 h -12.6 c -3.7,0 -6.6,-3 -6.6,-6.7 z"
   id="path24"
   inkscape:connector-curvature="0"
   style="fill:#2f9a41" />
	<path
   d="m 364.8,228.9 h -3.2 c -0.3,0 -0.6,-0.2 -0.7,-0.5 l -2.6,-7.5 h -14.8 l -2.6,7.5 c -0.1,0.3 -0.4,0.5 -0.7,0.5 H 337 l 9.4,-26.9 c 0.5,-1.3 1.7,-2.2 3.1,-2.2 h 4.6 c 0.2,0 0.4,0.1 0.5,0.3 z m -7.6,-11.3 -5,-14.4 h -1.9 c -0.3,0 -0.6,0.2 -0.7,0.5 l -4.8,13.9 z"
   id="path26"
   inkscape:connector-curvature="0"
   style="fill:#2f9a41" />
	<path
   d="m 367.9,226.7 v -24.6 c 0,-1.2 1,-2.2 2.2,-2.2 h 0.6 11.8 c 3.6,0 6.6,2.9 6.6,6.6 v 2.9 c 0,1.9 -1.5,4.3 -3.6,4.8 2.1,0.5 3.6,2.9 3.6,4.8 v 3.4 c 0,3.6 -2.9,6.6 -6.6,6.6 h -12.3 c -1.3,-0.1 -2.3,-1.1 -2.3,-2.3 z m 3.7,-14.2 h 10.9 c 1.6,0 2.9,-1.3 2.9,-2.9 v -3.4 c 0,-1.6 -1.3,-2.9 -2.9,-2.9 h -10.2 c -0.4,0 -0.7,0.3 -0.7,0.7 z m 13.8,6.3 c 0,-1.6 -1.3,-2.9 -2.9,-2.9 h -10.9 v 9 c 0,0.4 0.3,0.7 0.7,0.7 h 10.2 c 1.6,0 2.9,-1.4 2.9,-3 z"
   id="path28"
   inkscape:connector-curvature="0"
   style="fill:#2f9a41" />
	<path
   d="m 407.5,225.6 c 1.6,0 2.9,-1.3 2.9,-2.9 v -3.5 c 0,-0.4 -0.3,-0.8 -0.7,-0.9 l -14.8,-4.9 c -1.2,-0.4 -2.1,-1.7 -2.1,-2.9 v -4.6 c 0,-3.6 2.9,-5.8 6.6,-5.8 h 13.8 v 2.8 c 0,0.3 -0.2,0.5 -0.5,0.5 h -13.3 c -1.6,0 -3,1 -3,2.7 v 3.8 c 0,0.4 0.3,0.9 0.7,1 l 14.8,4.9 c 1.2,0.4 2,1.7 2,3 v 4.1 c 0,3.6 -2.7,6.3 -6.3,6.3 h -14.8 v -2.8 c 0,-0.3 0.2,-0.5 0.5,-0.5 h 14.2 z"
   id="path30"
   inkscape:connector-curvature="0"
   style="fill:#2f9a41" />
</g>
</svg>