<?xml version='1.0' encoding='ASCII' standalone='yes'?>
<svg xmlns:xlink="http://www.w3.org/1999/xlink" xmlns="http://www.w3.org/2000/svg" version="1.1" width="330.0" viewBox="0 0 330.0 330.0" height="330.0">
  <g>
    <g class="segno" transform="translate(0, 0) scale(10) ">
      <path fill="#2f9a41" d="M0 0h33v33h-33z"/>
      <path stroke="#000" class="qrline" d="M4 4.5h7m1 0h1m1 0h2m3 0h1m2 0h7m-25 1h1m5 0h1m1 0h1m4 0h1m1 0h1m2 0h1m5 0h1m-25 1h1m1 0h3m1 0h1m1 0h1m3 0h1m2 0h2m1 0h1m1 0h3m1 0h1m-25 1h1m1 0h3m1 0h1m3 0h1m1 0h1m2 0h1m2 0h1m1 0h3m1 0h1m-25 1h1m1 0h3m1 0h1m4 0h1m2 0h2m2 0h1m1 0h3m1 0h1m-25 1h1m5 0h1m1 0h1m2 0h1m2 0h2m2 0h1m5 0h1m-25 1h7m1 0h1m1 0h1m1 0h1m1 0h1m1 0h1m1 0h7m-17 1h1m1 0h2m1 0h1m1 0h1m-14 1h3m1 0h1m1 0h4m2 0h2m1 0h3m2 0h3m-24 1h1m1 0h3m2 0h2m3 0h1m5 0h1m2 0h1m-23 1h3m1 0h3m2 0h2m2 0h2m1 0h2m1 0h1m1 0h2m1 0h1m-25 1h1m1 0h1m4 0h2m2 0h1m1 0h2m1 0h2m2 0h1m2 0h1m-22 1h2m1 0h2m4 0h1m2 0h1m3 0h1m1 0h1m1 0h1m1 0h1m-25 1h2m2 0h2m1 0h2m2 0h2m2 0h2m1 0h2m-20 1h1m3 0h3m4 0h3m4 0h1m1 0h2m1 0h2m-25 1h1m2 0h1m1 0h1m1 0h7m2 0h1m1 0h3m-21 1h1m1 0h1m2 0h2m3 0h1m2 0h2m1 0h5m1 0h1m1 0h1m-17 1h4m1 0h1m2 0h1m3 0h2m-22 1h7m4 0h3m1 0h2m1 0h1m1 0h5m-25 1h1m5 0h1m3 0h1m2 0h4m3 0h1m-21 1h1m1 0h3m1 0h1m1 0h2m3 0h1m1 0h8m-23 1h1m1 0h3m1 0h1m1 0h3m1 0h2m4 0h1m1 0h1m1 0h1m1 0h1m-25 1h1m1 0h3m1 0h1m1 0h2m1 0h2m2 0h1m2 0h1m5 0h1m-25 1h1m5 0h1m6 0h3m1 0h1m6 0h1m-25 1h7m4 0h4m1 0h1m2 0h6"/>
    </g>
    <g transform="translate(120.0, 120.0) scale(1) ">
      <defs/>
      <rect fill="#000000" height="90" width="90" x="0" y="0"/>
    </g>
    <g transform="translate(130.0, 130.0) scale(0.972222222222) "><circle fill="#2F9A41" cx="36" cy="36" r="35.7"/>
<g>
	<path fill="#FFFFFF" d="M24.5,18.2v-7.1h8.2v7.1H24.5z M24.5,60.9v-7.1h8.2v7.1H24.5z M32.8,25.3v-7.1h8.2v7.1H32.8z    M32.8,53.8v-7.1h8.2v7.1H32.8z M41,32.4v-7.1h8.2v7.1H41z M41,46.7v-7.1h8.2v7.1H41z M49.2,39.6v-7.1h8.2v7.1H49.2z"/>
</g>
</g>
  </g>
</svg>
